<svg width="50" height="51" viewBox="0 0 50 51" fill="none" xmlns="http://www.w3.org/2000/svg">
<g clip-path="url(#clip0_1211_6612)">
<path d="M41.6662 46.778H8.33285C7.78031 46.778 7.25041 46.5585 6.85971 46.1678C6.46901 45.7771 6.24951 45.2472 6.24951 44.6947V7.19466C6.24951 6.64213 6.46901 6.11222 6.85971 5.72152C7.25041 5.33082 7.78031 5.11133 8.33285 5.11133H41.6662C42.2187 5.11133 42.7486 5.33082 43.1393 5.72152C43.53 6.11222 43.7495 6.64213 43.7495 7.19466V44.6947C43.7495 45.2472 43.53 45.7771 43.1393 46.1678C42.7486 46.5585 42.2187 46.778 41.6662 46.778ZM39.5828 42.6113V9.27799H10.4162V42.6113H39.5828ZM14.5828 13.4447H22.9162V21.778H14.5828V13.4447ZM14.5828 25.9447H35.4162V30.1113H14.5828V25.9447ZM14.5828 34.278H35.4162V38.4447H14.5828V34.278ZM27.0828 15.528H35.4162V19.6947H27.0828V15.528Z" fill="#14171B"/>
</g>
<defs>
<clipPath id="clip0_1211_6612">
<rect width="50" height="50" fill="white" transform="translate(0 0.944336)"/>
</clipPath>
</defs>
</svg>
