<svg width="118" height="119" viewBox="0 0 118 119" fill="none" xmlns="http://www.w3.org/2000/svg">
<circle cx="59" cy="59.3789" r="59" fill="#ffb533"/>
<path d="M59.5905 63.5088L53.1003 66.2979L64.9593 59.3791L59.5905 63.5088ZM50.6459 46.4778L71.3117 58.5335C71.4598 58.6202 71.5826 58.7441 71.668 58.893C71.7533 59.0418 71.7982 59.2105 71.7982 59.3821C71.7982 59.5537 71.7533 59.7223 71.668 59.8712C71.5826 60.02 71.4598 60.144 71.3117 60.2307L50.6459 72.2864C50.4961 72.3738 50.3257 72.4201 50.1522 72.4204C49.9787 72.4207 49.8082 72.3751 49.658 72.2882C49.5077 72.2014 49.3832 72.0763 49.297 71.9257C49.2108 71.7751 49.1659 71.6044 49.167 71.4309V47.3254C49.167 47.1524 49.2126 46.9824 49.2992 46.8327C49.3859 46.6829 49.5105 46.5587 49.6605 46.4725C49.8106 46.3863 49.9807 46.3412 50.1537 46.3418C50.3267 46.3424 50.4965 46.3886 50.6459 46.4758V46.4778Z" fill="white"/>
</svg>
