<svg width="51" height="51" viewBox="0 0 51 51" fill="none" xmlns="http://www.w3.org/2000/svg">
<g clip-path="url(#clip0_1211_6624)">
<path d="M6.91876 10.2547C9.33556 7.83749 12.5771 6.42366 15.9929 6.29692C19.4087 6.17018 22.7461 7.33991 25.3354 9.5714C27.9224 7.34363 31.2554 6.17521 34.6671 6.30007C38.0788 6.42492 41.3175 7.83384 43.7347 10.2447C46.152 12.6556 47.5694 15.8906 47.7031 19.302C47.8369 22.7134 46.6773 26.0494 44.4563 28.6422L28.2792 44.8714C27.5359 45.6149 26.5391 46.05 25.4886 46.0894C24.4381 46.1288 23.4114 45.7696 22.6146 45.0839L22.3854 44.8735L6.21042 28.6422C3.99061 26.0517 2.83038 22.7187 2.96171 19.3097C3.09303 15.9007 4.50623 12.6668 6.91876 10.2547V10.2547ZM9.86459 13.2006C8.16093 14.9047 7.17887 17.1994 7.12223 19.6084C7.06559 22.0174 7.93873 24.3557 9.56042 26.1381L9.86459 26.4589L25.3333 41.9276L36.3813 30.8776L29.0167 23.5131L26.8083 25.7214C26.2281 26.3019 25.5391 26.7625 24.7808 27.0768C24.0226 27.3911 23.2098 27.553 22.389 27.5532C20.7312 27.5536 19.1412 26.8954 17.9688 25.7235C16.7963 24.5516 16.1374 22.9619 16.137 21.3041C16.1366 19.6464 16.7947 18.0564 17.9667 16.8839L22.3458 12.5026C20.6031 11.1118 18.4217 10.3874 16.1931 10.4596C13.9645 10.5317 11.8346 11.3957 10.1854 12.8964L9.86459 13.2006V13.2006ZM27.5438 19.0922C27.9344 18.7017 28.4643 18.4823 29.0167 18.4823C29.5691 18.4823 30.0989 18.7017 30.4896 19.0922L39.3271 27.9297L40.8021 26.4589C42.5343 24.7279 43.5205 22.3879 43.5497 19.9392C43.5789 17.4906 42.6488 15.1277 40.9584 13.3559C39.268 11.5841 36.9514 10.544 34.5041 10.4582C32.0567 10.3723 29.673 11.2474 27.8625 12.8964L27.5438 13.2006L20.9146 19.8297C20.5535 20.1906 20.3375 20.6715 20.3075 21.1811C20.2775 21.6907 20.4358 22.1936 20.7521 22.5943L20.9146 22.7756C21.2755 23.1367 21.7563 23.3527 22.266 23.3827C22.7756 23.4126 23.2785 23.2544 23.6792 22.9381L23.8604 22.7756L27.5438 19.0922V19.0922Z" fill="#14171B"/>
</g>
<defs>
<clipPath id="clip0_1211_6624">
<rect width="50" height="50" fill="white" transform="translate(0.333252 0.944336)"/>
</clipPath>
</defs>
</svg>
